<mxfile host="app.diagrams.net" modified="2023-05-19T09:02:33.922Z" agent="Mozilla/5.0 (Macintosh; Intel Mac OS X 10_15_7) AppleWebKit/537.36 (KHTML, like Gecko) Chrome/113.0.0.0 Safari/537.36" etag="x2qRPLZGgCUtDTWXvh9g" version="21.3.2" type="github">
  <diagram id="C5RBs43oDa-KdzZeNtuy" name="Page-1">
    <mxGraphModel dx="3260" dy="1549" grid="0" gridSize="10" guides="1" tooltips="1" connect="1" arrows="1" fold="1" page="0" pageScale="1" pageWidth="827" pageHeight="1169" math="0" shadow="0">
      <root>
        <mxCell id="WIyWlLk6GJQsqaUBKTNV-0" />
        <mxCell id="WIyWlLk6GJQsqaUBKTNV-1" parent="WIyWlLk6GJQsqaUBKTNV-0" />
        <mxCell id="vNhWQ8wg24Rq092CNLv_-56" value="" style="rounded=0;whiteSpace=wrap;html=1;fillColor=#d5e8d4;strokeColor=#82b366;" vertex="1" parent="WIyWlLk6GJQsqaUBKTNV-1">
          <mxGeometry x="-1145" y="-256" width="327" height="724" as="geometry" />
        </mxCell>
        <mxCell id="vNhWQ8wg24Rq092CNLv_-34" value="" style="rounded=0;whiteSpace=wrap;html=1;fillColor=#fff2cc;strokeColor=#d6b656;" vertex="1" parent="WIyWlLk6GJQsqaUBKTNV-1">
          <mxGeometry x="-760" y="41" width="1525" height="782" as="geometry" />
        </mxCell>
        <mxCell id="vNhWQ8wg24Rq092CNLv_-2" value="" style="edgeStyle=orthogonalEdgeStyle;rounded=0;orthogonalLoop=1;jettySize=auto;html=1;" edge="1" parent="WIyWlLk6GJQsqaUBKTNV-1" source="ztIujDt_ARqLPOg0MwAG-4" target="vNhWQ8wg24Rq092CNLv_-0">
          <mxGeometry relative="1" as="geometry" />
        </mxCell>
        <mxCell id="ztIujDt_ARqLPOg0MwAG-4" value="Start" style="ellipse;whiteSpace=wrap;html=1;" parent="WIyWlLk6GJQsqaUBKTNV-1" vertex="1">
          <mxGeometry x="163" y="61" width="118" height="59" as="geometry" />
        </mxCell>
        <mxCell id="vNhWQ8wg24Rq092CNLv_-6" value="" style="edgeStyle=orthogonalEdgeStyle;rounded=0;orthogonalLoop=1;jettySize=auto;html=1;" edge="1" parent="WIyWlLk6GJQsqaUBKTNV-1" source="vNhWQ8wg24Rq092CNLv_-0" target="vNhWQ8wg24Rq092CNLv_-5">
          <mxGeometry relative="1" as="geometry" />
        </mxCell>
        <mxCell id="vNhWQ8wg24Rq092CNLv_-0" value="Compile URL Pattern" style="whiteSpace=wrap;html=1;" vertex="1" parent="WIyWlLk6GJQsqaUBKTNV-1">
          <mxGeometry x="162" y="229" width="120" height="60" as="geometry" />
        </mxCell>
        <mxCell id="vNhWQ8wg24Rq092CNLv_-8" value="" style="edgeStyle=orthogonalEdgeStyle;rounded=0;orthogonalLoop=1;jettySize=auto;html=1;" edge="1" parent="WIyWlLk6GJQsqaUBKTNV-1" source="vNhWQ8wg24Rq092CNLv_-5" target="vNhWQ8wg24Rq092CNLv_-7">
          <mxGeometry relative="1" as="geometry" />
        </mxCell>
        <mxCell id="vNhWQ8wg24Rq092CNLv_-11" value="" style="edgeStyle=orthogonalEdgeStyle;rounded=0;orthogonalLoop=1;jettySize=auto;html=1;" edge="1" parent="WIyWlLk6GJQsqaUBKTNV-1" source="vNhWQ8wg24Rq092CNLv_-5" target="vNhWQ8wg24Rq092CNLv_-10">
          <mxGeometry relative="1" as="geometry" />
        </mxCell>
        <mxCell id="vNhWQ8wg24Rq092CNLv_-12" value="False" style="edgeLabel;html=1;align=center;verticalAlign=middle;resizable=0;points=[];" vertex="1" connectable="0" parent="vNhWQ8wg24Rq092CNLv_-11">
          <mxGeometry x="-0.1034" y="-2" relative="1" as="geometry">
            <mxPoint as="offset" />
          </mxGeometry>
        </mxCell>
        <mxCell id="vNhWQ8wg24Rq092CNLv_-17" value="" style="edgeStyle=orthogonalEdgeStyle;rounded=0;orthogonalLoop=1;jettySize=auto;html=1;" edge="1" parent="WIyWlLk6GJQsqaUBKTNV-1" source="vNhWQ8wg24Rq092CNLv_-5" target="vNhWQ8wg24Rq092CNLv_-16">
          <mxGeometry relative="1" as="geometry" />
        </mxCell>
        <mxCell id="vNhWQ8wg24Rq092CNLv_-18" value="Flase" style="edgeLabel;html=1;align=center;verticalAlign=middle;resizable=0;points=[];" vertex="1" connectable="0" parent="vNhWQ8wg24Rq092CNLv_-17">
          <mxGeometry x="0.3125" y="3" relative="1" as="geometry">
            <mxPoint x="20" y="-10" as="offset" />
          </mxGeometry>
        </mxCell>
        <mxCell id="vNhWQ8wg24Rq092CNLv_-5" value="Enable Space Auth?" style="rhombus;whiteSpace=wrap;html=1;" vertex="1" parent="WIyWlLk6GJQsqaUBKTNV-1">
          <mxGeometry x="136.5" y="349" width="171" height="74" as="geometry" />
        </mxCell>
        <mxCell id="vNhWQ8wg24Rq092CNLv_-15" style="edgeStyle=orthogonalEdgeStyle;rounded=0;orthogonalLoop=1;jettySize=auto;html=1;" edge="1" parent="WIyWlLk6GJQsqaUBKTNV-1" source="vNhWQ8wg24Rq092CNLv_-7" target="vNhWQ8wg24Rq092CNLv_-13">
          <mxGeometry relative="1" as="geometry" />
        </mxCell>
        <mxCell id="vNhWQ8wg24Rq092CNLv_-7" value="Use Space Fetcher&lt;br&gt;to request" style="whiteSpace=wrap;html=1;" vertex="1" parent="WIyWlLk6GJQsqaUBKTNV-1">
          <mxGeometry x="413" y="356" width="120" height="60" as="geometry" />
        </mxCell>
        <mxCell id="vNhWQ8wg24Rq092CNLv_-9" value="True" style="text;html=1;align=center;verticalAlign=middle;resizable=0;points=[];autosize=1;strokeColor=none;fillColor=none;" vertex="1" parent="WIyWlLk6GJQsqaUBKTNV-1">
          <mxGeometry x="331" y="366" width="42" height="26" as="geometry" />
        </mxCell>
        <mxCell id="vNhWQ8wg24Rq092CNLv_-14" value="" style="edgeStyle=orthogonalEdgeStyle;rounded=0;orthogonalLoop=1;jettySize=auto;html=1;" edge="1" parent="WIyWlLk6GJQsqaUBKTNV-1" source="vNhWQ8wg24Rq092CNLv_-10" target="vNhWQ8wg24Rq092CNLv_-13">
          <mxGeometry relative="1" as="geometry" />
        </mxCell>
        <mxCell id="vNhWQ8wg24Rq092CNLv_-46" style="edgeStyle=orthogonalEdgeStyle;rounded=0;orthogonalLoop=1;jettySize=auto;html=1;" edge="1" parent="WIyWlLk6GJQsqaUBKTNV-1" source="vNhWQ8wg24Rq092CNLv_-10" target="vNhWQ8wg24Rq092CNLv_-13">
          <mxGeometry relative="1" as="geometry" />
        </mxCell>
        <mxCell id="vNhWQ8wg24Rq092CNLv_-10" value="Use Default Fetcher&lt;br&gt;to request" style="whiteSpace=wrap;html=1;" vertex="1" parent="WIyWlLk6GJQsqaUBKTNV-1">
          <mxGeometry x="162" y="510" width="120" height="60" as="geometry" />
        </mxCell>
        <mxCell id="vNhWQ8wg24Rq092CNLv_-13" value="End" style="ellipse;whiteSpace=wrap;html=1;" vertex="1" parent="WIyWlLk6GJQsqaUBKTNV-1">
          <mxGeometry x="398.5" y="687" width="149" height="65" as="geometry" />
        </mxCell>
        <mxCell id="vNhWQ8wg24Rq092CNLv_-38" value="True" style="edgeStyle=orthogonalEdgeStyle;rounded=0;orthogonalLoop=1;jettySize=auto;html=1;" edge="1" parent="WIyWlLk6GJQsqaUBKTNV-1" source="vNhWQ8wg24Rq092CNLv_-16" target="vNhWQ8wg24Rq092CNLv_-37">
          <mxGeometry x="-0.175" y="-11" relative="1" as="geometry">
            <mxPoint as="offset" />
          </mxGeometry>
        </mxCell>
        <mxCell id="vNhWQ8wg24Rq092CNLv_-39" style="edgeStyle=orthogonalEdgeStyle;rounded=0;orthogonalLoop=1;jettySize=auto;html=1;" edge="1" parent="WIyWlLk6GJQsqaUBKTNV-1" source="vNhWQ8wg24Rq092CNLv_-16" target="vNhWQ8wg24Rq092CNLv_-10">
          <mxGeometry relative="1" as="geometry">
            <Array as="points">
              <mxPoint x="-69" y="540" />
            </Array>
          </mxGeometry>
        </mxCell>
        <mxCell id="vNhWQ8wg24Rq092CNLv_-40" value="False" style="edgeLabel;html=1;align=center;verticalAlign=middle;resizable=0;points=[];" vertex="1" connectable="0" parent="vNhWQ8wg24Rq092CNLv_-39">
          <mxGeometry x="-0.7188" y="-1" relative="1" as="geometry">
            <mxPoint as="offset" />
          </mxGeometry>
        </mxCell>
        <mxCell id="vNhWQ8wg24Rq092CNLv_-16" value="Has Custom Fetcher?" style="rhombus;whiteSpace=wrap;html=1;fillColor=#dae8fc;strokeColor=#6c8ebf;" vertex="1" parent="WIyWlLk6GJQsqaUBKTNV-1">
          <mxGeometry x="-155" y="349" width="171" height="74" as="geometry" />
        </mxCell>
        <mxCell id="vNhWQ8wg24Rq092CNLv_-21" value="Fetcher Map" style="shape=cylinder3;whiteSpace=wrap;html=1;boundedLbl=1;backgroundOutline=1;size=15;fillColor=#dae8fc;strokeColor=#6c8ebf;" vertex="1" parent="WIyWlLk6GJQsqaUBKTNV-1">
          <mxGeometry x="-588" y="-120" width="194" height="115" as="geometry" />
        </mxCell>
        <mxCell id="vNhWQ8wg24Rq092CNLv_-24" value="" style="edgeStyle=orthogonalEdgeStyle;rounded=0;orthogonalLoop=1;jettySize=auto;html=1;" edge="1" parent="WIyWlLk6GJQsqaUBKTNV-1" source="vNhWQ8wg24Rq092CNLv_-22" target="vNhWQ8wg24Rq092CNLv_-23">
          <mxGeometry relative="1" as="geometry" />
        </mxCell>
        <mxCell id="vNhWQ8wg24Rq092CNLv_-22" value="Start" style="ellipse;whiteSpace=wrap;html=1;" vertex="1" parent="WIyWlLk6GJQsqaUBKTNV-1">
          <mxGeometry x="-1045" y="-202" width="120" height="80" as="geometry" />
        </mxCell>
        <mxCell id="vNhWQ8wg24Rq092CNLv_-28" value="" style="edgeStyle=orthogonalEdgeStyle;rounded=0;orthogonalLoop=1;jettySize=auto;html=1;" edge="1" parent="WIyWlLk6GJQsqaUBKTNV-1" source="vNhWQ8wg24Rq092CNLv_-23" target="vNhWQ8wg24Rq092CNLv_-27">
          <mxGeometry relative="1" as="geometry" />
        </mxCell>
        <mxCell id="vNhWQ8wg24Rq092CNLv_-31" style="edgeStyle=orthogonalEdgeStyle;rounded=0;orthogonalLoop=1;jettySize=auto;html=1;dashed=1;" edge="1" parent="WIyWlLk6GJQsqaUBKTNV-1" source="vNhWQ8wg24Rq092CNLv_-23" target="vNhWQ8wg24Rq092CNLv_-21">
          <mxGeometry relative="1" as="geometry" />
        </mxCell>
        <mxCell id="vNhWQ8wg24Rq092CNLv_-23" value="Register Fetcher" style="whiteSpace=wrap;html=1;fillColor=#dae8fc;strokeColor=#6c8ebf;" vertex="1" parent="WIyWlLk6GJQsqaUBKTNV-1">
          <mxGeometry x="-1045" y="-92.5" width="120" height="60" as="geometry" />
        </mxCell>
        <mxCell id="vNhWQ8wg24Rq092CNLv_-30" value="" style="edgeStyle=orthogonalEdgeStyle;rounded=0;orthogonalLoop=1;jettySize=auto;html=1;" edge="1" parent="WIyWlLk6GJQsqaUBKTNV-1" source="vNhWQ8wg24Rq092CNLv_-27" target="vNhWQ8wg24Rq092CNLv_-29">
          <mxGeometry relative="1" as="geometry" />
        </mxCell>
        <mxCell id="vNhWQ8wg24Rq092CNLv_-27" value="Load Component" style="whiteSpace=wrap;html=1;" vertex="1" parent="WIyWlLk6GJQsqaUBKTNV-1">
          <mxGeometry x="-1045" y="39" width="120" height="60" as="geometry" />
        </mxCell>
        <mxCell id="vNhWQ8wg24Rq092CNLv_-33" value="" style="edgeStyle=orthogonalEdgeStyle;rounded=0;orthogonalLoop=1;jettySize=auto;html=1;" edge="1" parent="WIyWlLk6GJQsqaUBKTNV-1" source="vNhWQ8wg24Rq092CNLv_-29" target="vNhWQ8wg24Rq092CNLv_-32">
          <mxGeometry relative="1" as="geometry" />
        </mxCell>
        <mxCell id="vNhWQ8wg24Rq092CNLv_-58" style="edgeStyle=orthogonalEdgeStyle;rounded=0;orthogonalLoop=1;jettySize=auto;html=1;entryX=0.001;entryY=0.215;entryDx=0;entryDy=0;entryPerimeter=0;dashed=1;" edge="1" parent="WIyWlLk6GJQsqaUBKTNV-1" source="vNhWQ8wg24Rq092CNLv_-29" target="vNhWQ8wg24Rq092CNLv_-34">
          <mxGeometry relative="1" as="geometry">
            <Array as="points">
              <mxPoint x="-849" y="210" />
            </Array>
          </mxGeometry>
        </mxCell>
        <mxCell id="vNhWQ8wg24Rq092CNLv_-29" value="Render Page" style="whiteSpace=wrap;html=1;" vertex="1" parent="WIyWlLk6GJQsqaUBKTNV-1">
          <mxGeometry x="-1045" y="180" width="120" height="60" as="geometry" />
        </mxCell>
        <mxCell id="vNhWQ8wg24Rq092CNLv_-32" value="End" style="ellipse;whiteSpace=wrap;html=1;" vertex="1" parent="WIyWlLk6GJQsqaUBKTNV-1">
          <mxGeometry x="-1045" y="332" width="120" height="80" as="geometry" />
        </mxCell>
        <mxCell id="vNhWQ8wg24Rq092CNLv_-41" style="edgeStyle=orthogonalEdgeStyle;rounded=0;orthogonalLoop=1;jettySize=auto;html=1;dashed=1;" edge="1" parent="WIyWlLk6GJQsqaUBKTNV-1" source="vNhWQ8wg24Rq092CNLv_-37" target="vNhWQ8wg24Rq092CNLv_-21">
          <mxGeometry relative="1" as="geometry" />
        </mxCell>
        <mxCell id="vNhWQ8wg24Rq092CNLv_-43" value="" style="edgeStyle=orthogonalEdgeStyle;rounded=0;orthogonalLoop=1;jettySize=auto;html=1;" edge="1" parent="WIyWlLk6GJQsqaUBKTNV-1" source="vNhWQ8wg24Rq092CNLv_-37" target="vNhWQ8wg24Rq092CNLv_-42">
          <mxGeometry relative="1" as="geometry" />
        </mxCell>
        <mxCell id="vNhWQ8wg24Rq092CNLv_-44" value="True" style="edgeLabel;html=1;align=center;verticalAlign=middle;resizable=0;points=[];" vertex="1" connectable="0" parent="vNhWQ8wg24Rq092CNLv_-43">
          <mxGeometry x="-0.1954" y="-2" relative="1" as="geometry">
            <mxPoint as="offset" />
          </mxGeometry>
        </mxCell>
        <mxCell id="vNhWQ8wg24Rq092CNLv_-48" value="False" style="edgeStyle=orthogonalEdgeStyle;rounded=0;orthogonalLoop=1;jettySize=auto;html=1;" edge="1" parent="WIyWlLk6GJQsqaUBKTNV-1" source="vNhWQ8wg24Rq092CNLv_-37" target="vNhWQ8wg24Rq092CNLv_-47">
          <mxGeometry x="-0.0711" y="-12" relative="1" as="geometry">
            <mxPoint as="offset" />
          </mxGeometry>
        </mxCell>
        <mxCell id="vNhWQ8wg24Rq092CNLv_-37" value="Custom Fetcher in&amp;nbsp;&lt;br&gt;Fetcher Map?" style="rhombus;whiteSpace=wrap;html=1;fillColor=#dae8fc;strokeColor=#6c8ebf;" vertex="1" parent="WIyWlLk6GJQsqaUBKTNV-1">
          <mxGeometry x="-406" y="349" width="171" height="74" as="geometry" />
        </mxCell>
        <mxCell id="vNhWQ8wg24Rq092CNLv_-45" style="edgeStyle=orthogonalEdgeStyle;rounded=0;orthogonalLoop=1;jettySize=auto;html=1;" edge="1" parent="WIyWlLk6GJQsqaUBKTNV-1" source="vNhWQ8wg24Rq092CNLv_-42" target="vNhWQ8wg24Rq092CNLv_-13">
          <mxGeometry relative="1" as="geometry">
            <Array as="points">
              <mxPoint x="-320" y="720" />
            </Array>
          </mxGeometry>
        </mxCell>
        <mxCell id="vNhWQ8wg24Rq092CNLv_-42" value="Use Fetcher&lt;br&gt;&amp;nbsp;to request" style="whiteSpace=wrap;html=1;fillColor=#dae8fc;strokeColor=#6c8ebf;" vertex="1" parent="WIyWlLk6GJQsqaUBKTNV-1">
          <mxGeometry x="-380.5" y="510" width="120" height="60" as="geometry" />
        </mxCell>
        <mxCell id="vNhWQ8wg24Rq092CNLv_-50" style="edgeStyle=orthogonalEdgeStyle;rounded=0;orthogonalLoop=1;jettySize=auto;html=1;" edge="1" parent="WIyWlLk6GJQsqaUBKTNV-1" source="vNhWQ8wg24Rq092CNLv_-47" target="vNhWQ8wg24Rq092CNLv_-49">
          <mxGeometry relative="1" as="geometry" />
        </mxCell>
        <mxCell id="vNhWQ8wg24Rq092CNLv_-47" value="Download Custom Fetcher from unpkg.shopee.io" style="whiteSpace=wrap;html=1;fillColor=#dae8fc;strokeColor=#6c8ebf;" vertex="1" parent="WIyWlLk6GJQsqaUBKTNV-1">
          <mxGeometry x="-649" y="351" width="135.5" height="70" as="geometry" />
        </mxCell>
        <mxCell id="vNhWQ8wg24Rq092CNLv_-52" style="edgeStyle=orthogonalEdgeStyle;rounded=0;orthogonalLoop=1;jettySize=auto;html=1;entryX=0.5;entryY=1;entryDx=0;entryDy=0;entryPerimeter=0;dashed=1;" edge="1" parent="WIyWlLk6GJQsqaUBKTNV-1" source="vNhWQ8wg24Rq092CNLv_-49" target="vNhWQ8wg24Rq092CNLv_-21">
          <mxGeometry relative="1" as="geometry">
            <Array as="points">
              <mxPoint x="-711" y="537" />
              <mxPoint x="-711" y="173" />
              <mxPoint x="-491" y="173" />
            </Array>
          </mxGeometry>
        </mxCell>
        <mxCell id="vNhWQ8wg24Rq092CNLv_-53" style="edgeStyle=orthogonalEdgeStyle;rounded=0;orthogonalLoop=1;jettySize=auto;html=1;" edge="1" parent="WIyWlLk6GJQsqaUBKTNV-1" source="vNhWQ8wg24Rq092CNLv_-49" target="vNhWQ8wg24Rq092CNLv_-42">
          <mxGeometry relative="1" as="geometry" />
        </mxCell>
        <mxCell id="vNhWQ8wg24Rq092CNLv_-49" value="Cache Fetcher into Fetcher Map" style="whiteSpace=wrap;html=1;fillColor=#dae8fc;strokeColor=#6c8ebf;" vertex="1" parent="WIyWlLk6GJQsqaUBKTNV-1">
          <mxGeometry x="-649" y="505" width="135.5" height="70" as="geometry" />
        </mxCell>
        <mxCell id="vNhWQ8wg24Rq092CNLv_-55" value="Data Source Handler Logic" style="text;strokeColor=none;align=center;fillColor=none;html=1;verticalAlign=middle;whiteSpace=wrap;rounded=0;" vertex="1" parent="WIyWlLk6GJQsqaUBKTNV-1">
          <mxGeometry x="-747" y="54" width="176" height="30" as="geometry" />
        </mxCell>
        <mxCell id="vNhWQ8wg24Rq092CNLv_-57" value="SDK Logic" style="text;strokeColor=none;align=center;fillColor=none;html=1;verticalAlign=middle;whiteSpace=wrap;rounded=0;" vertex="1" parent="WIyWlLk6GJQsqaUBKTNV-1">
          <mxGeometry x="-1130" y="-248" width="60" height="30" as="geometry" />
        </mxCell>
      </root>
    </mxGraphModel>
  </diagram>
</mxfile>
